{"asset":{"version":"2.0"},"scene":0,"scenes":[{"nodes":[2]}],"nodes":[{"name":"DutchCamera.001","translation":[1.714935302734375,0.6218686699867249,11.06573486328125],"rotation":[0.21862047910690308,0.0566803403198719,0.16682033240795135,0.9597725868225098],"scale":[-17.449724197387695,-17.449722290039062,-17.449724197387695],"camera":0,"children":[]},{"name":"Empty.004","translation":[-17.537389755249023,-79.26734924316406,-4.251946926116943],"rotation":[0,0.7071068286895752,-0.7071067690849304,1.1520233300643667e-07],"scale":[-5.87236213684082,-5.87236213684082,-5.87236213684082],"children":[0]},{"name":"MainSkeleton.001","translation":[-14.220244407653809,-0.008757270872592926,31.067975997924805],"rotation":[0,-0.7071068286895752,0.7071068286895752,1.1520233300643667e-07],"scale":[0.009758849628269672,0.009758849628269672,0.009758849628269672],"children":[1]}],"cameras":[{"name":"Camera.001","type":"perspective","perspective":{"znear":0.009999999776482582,"zfar":1000,"yfov":1.2522734086929386,"aspectRatio":1.7777777777777777}}],"animations":[{"name":"MainSkeleton.001","channels":[{"sampler":0,"target":{"node":2,"path":"translation"}}],"samplers":[{"input":0,"output":1,"interpolation":"LINEAR"}]},{"name":"Empty.004","channels":[{"sampler":0,"target":{"node":1,"path":"translation"}}],"samplers":[{"input":0,"output":2,"interpolation":"LINEAR"}]},{"name":"DutchCamera.001","channels":[{"sampler":0,"target":{"node":0,"path":"translation"}},{"sampler":1,"target":{"node":0,"path":"rotation"}}],"samplers":[{"input":0,"output":3,"interpolation":"LINEAR"},{"input":0,"output":4,"interpolation":"LINEAR"}]}],"accessors":[{"type":"SCALAR","componentType":5126,"count":200,"max":[8.333333015441895],"min":[0.0416666679084301],"bufferView":0,"byteOffset":0},{"type":"VEC3","componentType":5126,"count":200,"bufferView":0,"byteOffset":407528},{"type":"VEC3","componentType":5126,"count":200,"bufferView":0,"byteOffset":409928},{"type":"VEC3","componentType":5126,"count":200,"bufferView":0,"byteOffset":412328},{"type":"VEC4","componentType":5126,"count":200,"bufferView":0,"byteOffset":414728}],"bufferViews":[{"buffer":0,"byteOffset":0,"byteLength":674008}],"buffers":[{"byteLength":674008,"uri":"data:application/octet-stream;base64,"}]}